<!-- Generated by IcoMoon.io -->
<svg version="1.1" xmlns="http://www.w3.org/2000/svg" width="32" height="32" viewBox="0 0 32 32">
<title>copyright</title>
<path d="M15.71 0.108l-1.128 0.061-1.124 0.141-1.114 0.223-1.088 0.303-1.067 0.382-1.034 0.458-1.006 0.53-0.955 0.602-0.915 0.67-0.865 0.732-0.807 0.793-0.746 0.851-0.685 0.901-0.62 0.952-0.551 0.988-0.472 1.031-0.404 1.056-0.321 1.085-0.241 1.11-0.166 1.121-0.079 1.128v1.135l0.079 1.124 0.166 1.121 0.241 1.11 0.321 1.081 0.404 1.060 0.472 1.031 0.551 0.988 0.62 0.952 0.685 0.901 0.746 0.851 0.807 0.793 0.865 0.732 0.915 0.67 0.955 0.602 1.006 0.53 1.034 0.454 1.067 0.386 1.088 0.299 1.114 0.227 1.124 0.141 1.128 0.061 1.135-0.018 1.128-0.101 1.114-0.187 1.103-0.263 1.078-0.339 1.052-0.422 1.020-0.494 0.98-0.566 0.941-0.638 0.887-0.703 0.836-0.761 0.779-0.825 0.717-0.876 0.652-0.923 0.587-0.97 0.508-1.013 0.44-1.045 0.36-1.070 0.285-1.099 0.202-1.11 0.122-1.128 0.043-1.132-0.043-1.132-0.122-1.128-0.202-1.11-0.285-1.099-0.36-1.070-0.44-1.045-0.508-1.013-0.587-0.97-0.652-0.923-0.717-0.879-0.779-0.822-0.836-0.764-0.887-0.699-0.941-0.638-0.98-0.566-1.020-0.494-1.052-0.418-1.078-0.342-1.103-0.263-1.114-0.184-1.128-0.105-1.135-0.018zM16.261 1.953l1.070 0.061 1.063 0.148 1.049 0.223 1.031 0.31 0.998 0.386 0.973 0.461 0.926 0.537 0.887 0.609 0.836 0.674 0.779 0.735 0.721 0.797 0.656 0.847 0.591 0.894 0.519 0.941 0.443 0.977 0.368 1.013 0.292 1.034 0.205 1.052 0.123 1.067 0.043 1.070-0.043 1.070-0.123 1.067-0.205 1.052-0.292 1.034-0.368 1.009-0.443 0.977-0.519 0.941-0.591 0.897-0.656 0.851-0.721 0.793-0.779 0.735-0.836 0.674-0.887 0.609-0.926 0.537-0.973 0.461-0.998 0.386-1.031 0.31-1.049 0.227-1.063 0.144-1.070 0.061-1.070-0.018-1.070-0.108-1.056-0.187-1.038-0.267-1.016-0.346-0.988-0.425-0.948-0.497-0.908-0.577-0.861-0.638-0.807-0.706-0.753-0.768-0.688-0.822-0.624-0.872-0.555-0.919-0.483-0.959-0.404-0.995-0.328-1.024-0.249-1.045-0.166-1.060-0.083-1.067v-1.074l0.083-1.070 0.166-1.060 0.249-1.042 0.328-1.024 0.404-0.995 0.483-0.959 0.555-0.919 0.624-0.876 0.688-0.818 0.753-0.768 0.807-0.706 0.861-0.642 0.908-0.573 0.948-0.497 0.988-0.425 1.016-0.346 1.038-0.27 1.056-0.184 1.070-0.108 1.070-0.018zM15.995 7.486c-4.586 0-8.304 3.718-8.304 8.304s3.718 8.304 8.304 8.304c1.866-0.004 3.677-0.636 5.14-1.795l-1.139-1.438c-1.14 0.899-2.549 1.388-4.001 1.388-3.567 0-6.459-2.892-6.459-6.459s2.892-6.459 6.459-6.459c1.451 0.003 2.859 0.494 3.997 1.395l1.15-1.452c-1.466-1.158-3.279-1.788-5.147-1.788z"></path>
</svg>
