<!-- Generated by IcoMoon.io -->
<svg version="1.1" xmlns="http://www.w3.org/2000/svg" width="32" height="32" viewBox="0 0 32 32">
<title>downArrow</title>
<path fill="#d4533c" d="M1.763 7.543c0.227-0.004 0.453 0.037 0.664 0.12s0.404 0.207 0.567 0.365l12.733 12.443 12.426-12.75c0.321-0.329 0.759-0.517 1.219-0.522s0.902 0.172 1.231 0.493c0.329 0.321 0.517 0.759 0.522 1.219s-0.172 0.902-0.493 1.231l-13.636 13.973c-0.158 0.164-0.348 0.294-0.557 0.385s-0.434 0.138-0.662 0.141c-0.228 0.003-0.454-0.040-0.665-0.125s-0.404-0.211-0.566-0.371l-13.973-13.636c-0.164-0.158-0.294-0.348-0.385-0.557s-0.138-0.434-0.141-0.662c-0.003-0.228 0.040-0.454 0.125-0.665s0.211-0.404 0.371-0.566c0.159-0.162 0.349-0.291 0.558-0.379s0.434-0.135 0.661-0.136z"></path>
</svg>
