<!-- Generated by IcoMoon.io -->
<svg version="1.1" xmlns="http://www.w3.org/2000/svg" width="32" height="32" viewBox="0 0 32 32">
<title>email</title>
<path fill="#d4533c" d="M29.79 4.528h-27.804c-0.527 0-1.032 0.209-1.404 0.582s-0.582 0.878-0.582 1.404v18.536c0 0.527 0.209 1.032 0.582 1.404s0.878 0.582 1.404 0.582h27.804c0.527 0 1.032-0.209 1.404-0.582s0.582-0.878 0.582-1.404v-18.536c0-0.527-0.209-1.032-0.582-1.404s-0.878-0.582-1.404-0.582zM29.367 5.852l-13.478 10.42-13.478-10.42h26.957zM1.324 24.779v-18.093l10.201 7.884-10.201 10.208zM2.257 25.712l10.321-10.321 2.9 2.244c0.116 0.089 0.258 0.137 0.404 0.137s0.288-0.048 0.404-0.137l2.913-2.244 10.321 10.321h-27.261zM30.452 24.779l-10.202-10.208 10.202-7.885v18.093z"></path>
</svg>
