<!-- Generated by IcoMoon.io -->
<svg version="1.1" xmlns="http://www.w3.org/2000/svg" width="32" height="32" viewBox="0 0 32 32">
<title>facebook</title>
<path fill="#000" d="M32 16c0 8.837-7.163 16-16 16s-16-7.163-16-16c0-8.837 7.163-16 16-16s16 7.163 16 16z"></path>
<path fill="#fff" d="M19.695 16.932l0.441-2.874h-2.757v-1.865c0-0.786 0.385-1.553 1.62-1.553h1.254v-2.447c0 0-1.138-0.194-2.225-0.194-2.271 0-3.755 1.376-3.755 3.868v2.19h-2.524v2.874h2.524v6.947c0.506 0.079 1.025 0.121 1.553 0.121s1.047-0.041 1.553-0.121v-6.947h2.317z"></path>
</svg>
