<!-- Generated by IcoMoon.io -->
<svg version="1.1" xmlns="http://www.w3.org/2000/svg" width="32" height="32" viewBox="0 0 32 32">
<title>getQoute</title>
<path fill="#fff" d="M30.222 14.222c0 7.855-6.367 14.222-14.222 14.222s-14.222-6.367-14.222-14.222c0-7.855 6.367-14.222 14.222-14.222s14.222 6.367 14.222 14.222z"></path>
<path fill="#d4533c" d="M15.679 24.715c1.498-0.768 2.918-1.728 4.147-2.88 0.269-0.269 0.576-0.538 0.806-0.806 0.115-0.115 0.23-0.23 0.346-0.384 0.192-0.192 0.307-0.384 0.499-0.576 0.192-0.23 0.384-0.461 0.538-0.73 0.346-0.538 0.691-1.075 0.96-1.651 0.154-0.307 0.307-0.614 0.422-0.96 0.307-0.845 0.538-1.728 0.653-2.611 0.038-0.23 0.038-0.499 0.077-0.73 0.038-0.653 0.038-1.267-0.077-1.92-0.307-1.92-1.075-3.571-2.381-4.954-0.499-0.576-1.114-1.037-1.728-1.459-1.19-0.768-2.496-1.229-3.917-1.421-0.154-0.038-0.346 0-0.499-0.077h-1.229c0 0.038-0.038 0.038-0.077 0.038-0.307 0.038-0.614 0.077-0.922 0.115-2.266 0.422-4.109 1.536-5.53 3.341-1.19 1.459-1.843 3.187-1.958 5.069-0.115 1.344 0.077 2.688 0.576 4.032 0.077 0.23 0.192 0.422 0.269 0.614 0.038 0.038 0.038 0.115 0.077 0.154 0.499 0.96 1.114 1.843 1.92 2.573 0.422 0.384 0.845 0.73 1.344 1.037 1.459 0.922 3.072 1.421 4.838 1.459 0.115 0 0.154 0.038 0.154 0.154v2.151c-0.038 0.346 0.346 0.576 0.691 0.422zM15.794 10.276c-0.038-0.23 0.038-0.384 0.23-0.499 0.077-0.038 0.154-0.077 0.23-0.077 1.152 0 2.266 0 3.418 0 0.307 0 0.461 0.269 0.461 0.614 0 0.154 0 2.726 0 4.032 0 1.152-0.73 2.227-1.766 2.688-0.038 0-0.038 0.038-0.077 0.038 0 0.038 0.038 0.038 0.077 0.038-0.038 0-0.038 0-0.077-0.038h-0.038c0 0 0 0-0.038 0-0.23 0.077-0.461 0.115-0.691 0.154-0.154 0.038-0.269-0.077-0.269-0.23 0-0.115 0-0.23 0-0.384 0-0.23 0-0.422 0-0.653 0-0.038 0-0.115 0-0.154 0-0.154 0.077-0.23 0.269-0.307 0.269-0.077 0.499-0.154 0.73-0.346 0.23-0.23 0.384-0.538 0.422-0.845-0.73 0-1.421 0-2.151 0-0.077 0-0.154 0-0.23 0-0.307 0-0.499-0.192-0.499-0.499 0-1.152 0-2.342 0-3.533 0 0.038 0 0.038 0 0zM14.105 14.346c0 0.845-0.346 1.574-0.96 2.15-0.038 0.038-0.077 0.077-0.077 0.077-0.307 0.23-0.653 0.461-1.075 0.538-0.154 0.038-0.346 0.077-0.499 0.115-0.115 0.038-0.23-0.038-0.269-0.192 0-0.384 0-0.73 0-1.114 0-0.115-0.038-0.23 0.038-0.307 0.038-0.038 0.077-0.077 0.154-0.115 0.192-0.038 0.384-0.077 0.576-0.192 0.307-0.192 0.538-0.461 0.614-0.845 0-0.038 0.038-0.115 0.038-0.192-0.768 0-1.536 0-2.342 0-0.077 0-0.115 0-0.192-0.038-0.192-0.038-0.346-0.23-0.346-0.461 0-1.19 0-2.342 0-3.533 0-0.192 0-0.384 0.154-0.499 0.077-0.077 0.192-0.115 0.307-0.115 1.152 0 2.304 0 3.418 0 0.307 0 0.461 0.077 0.461 0.614 0 0.154 0 2.803 0 4.109z"></path>
</svg>
