<!-- Generated by IcoMoon.io -->
<svg version="1.1" xmlns="http://www.w3.org/2000/svg" width="32" height="32" viewBox="0 0 32 32">
<title>Group-18</title>
<path fill="#fafafa" d="M31.323 9.238h-30.788c-0.070 0-0.14-0.027-0.204-0.079s-0.124-0.129-0.173-0.226c-0.050-0.097-0.089-0.211-0.116-0.337s-0.041-0.261-0.041-0.398c0-0.137 0.014-0.272 0.041-0.398s0.066-0.241 0.116-0.337c0.050-0.097 0.109-0.173 0.173-0.226s0.134-0.079 0.204-0.079h30.788c0.142 0 0.277 0.11 0.378 0.305s0.156 0.46 0.156 0.736c0 0.276-0.056 0.54-0.156 0.736s-0.236 0.305-0.378 0.305v0z"></path>
<path fill="#fafafa" d="M31.177 16.52h-21.71c-0.18 0-0.353-0.11-0.48-0.305s-0.199-0.46-0.199-0.736c0-0.276 0.072-0.54 0.199-0.736s0.3-0.305 0.48-0.305h21.71c0.18 0 0.353 0.11 0.48 0.305s0.199 0.46 0.199 0.736c0 0.276-0.072 0.54-0.199 0.736s-0.3 0.305-0.48 0.305z"></path>
<path fill="#fafafa" d="M31.526 24.842h-19.11c-0.088 0-0.172-0.11-0.234-0.305s-0.097-0.46-0.097-0.736c0-0.276 0.035-0.54 0.097-0.736s0.147-0.305 0.234-0.305h19.11c0.088 0 0.172 0.11 0.234 0.305s0.097 0.46 0.097 0.736-0.035 0.54-0.097 0.736c-0.062 0.195-0.147 0.305-0.234 0.305v0z"></path>
</svg>
