<!-- Generated by IcoMoon.io -->
<svg version="1.1" xmlns="http://www.w3.org/2000/svg" width="32" height="32" viewBox="0 0 32 32">
<title>instagram</title>
<path fill="#000" d="M32 16c0 8.837-7.163 16-16 16s-16-7.163-16-16c0-8.837 7.163-16 16-16s16 7.163 16 16z"></path>
<path fill="#fff" d="M19.412 8.637c1.048 0 2.053 0.416 2.794 1.157s1.157 1.746 1.157 2.794v6.824c0 1.048-0.416 2.053-1.157 2.794s-1.746 1.157-2.794 1.157h-6.825c-1.048 0-2.053-0.416-2.794-1.157s-1.157-1.746-1.157-2.794v-6.824c0-1.048 0.416-2.053 1.157-2.794s1.746-1.157 2.794-1.157h6.824zM19.412 7.2h-6.825c-1.428 0.004-2.796 0.573-3.805 1.583s-1.579 2.377-1.583 3.805v6.824c0.004 1.428 0.573 2.796 1.583 3.805s2.377 1.578 3.805 1.583h6.825c1.428-0.004 2.796-0.573 3.805-1.583s1.578-2.377 1.583-3.805v-6.824c-0.004-1.428-0.573-2.796-1.583-3.805s-2.377-1.579-3.805-1.583v0z"></path>
<path fill="#fff" d="M20.695 10.253c-0.203 0-0.402 0.060-0.572 0.173s-0.301 0.274-0.379 0.462c-0.078 0.188-0.098 0.395-0.059 0.595s0.138 0.383 0.282 0.527 0.327 0.242 0.527 0.282c0.2 0.040 0.406 0.019 0.595-0.059s0.349-0.21 0.462-0.379c0.113-0.169 0.173-0.368 0.173-0.572 0-0.135-0.027-0.269-0.078-0.394s-0.128-0.238-0.223-0.334c-0.096-0.096-0.209-0.171-0.334-0.223s-0.259-0.078-0.394-0.078v0z"></path>
<path fill="#fff" d="M16.049 12.852c0.628-0 1.242 0.186 1.765 0.534s0.93 0.845 1.17 1.425 0.304 1.219 0.181 1.835c-0.122 0.616-0.425 1.182-0.869 1.626s-1.010 0.747-1.626 0.869c-0.616 0.122-1.255 0.059-1.835-0.181s-1.076-0.648-1.425-1.17c-0.349-0.523-0.535-1.137-0.534-1.765 0.001-0.841 0.336-1.648 0.931-2.242s1.401-0.93 2.242-0.931zM16.049 11.415c-0.912 0.002-1.803 0.274-2.56 0.782s-1.347 1.229-1.695 2.072-0.438 1.77-0.258 2.664c0.179 0.894 0.619 1.715 1.265 2.359s1.467 1.082 2.362 1.259c0.895 0.177 1.821 0.085 2.664-0.265s1.562-0.941 2.068-1.699c0.506-0.758 0.776-1.65 0.776-2.562-0-0.606-0.12-1.206-0.352-1.766s-0.573-1.069-1.002-1.497c-0.429-0.428-0.939-0.768-1.499-0.999s-1.161-0.349-1.767-0.348z"></path>
</svg>
