<!-- Generated by IcoMoon.io -->
<svg version="1.1" xmlns="http://www.w3.org/2000/svg" width="32" height="32" viewBox="0 0 32 32">
<title>location</title>
<path fill="#d4533c" d="M18.774 23.294l5.364-8.625c0.018-0.028 0.032-0.057 0.044-0.088 0.926-1.51 1.415-3.236 1.415-4.998 0-5.285-4.3-9.584-9.584-9.584s-9.585 4.3-9.585 9.584c0 1.762 0.49 3.488 1.417 5 0.011 0.026 0.023 0.052 0.038 0.077l5.171 8.654c-4.014 0.567-6.654 2.218-6.654 4.22 0 2.481 4.216 4.424 9.598 4.424s9.598-1.943 9.598-4.424c0-2.012-2.763-3.699-6.822-4.242zM8.808 14.101c-0.855-1.361-1.307-2.922-1.307-4.516 0-4.693 3.818-8.511 8.511-8.511s8.511 3.818 8.511 8.511c0 1.595-0.452 3.156-1.306 4.516-0.018 0.029-0.033 0.058-0.044 0.089l-5.667 9.111c-0.085 0.131-0.102 0.16-0.206 0.331l-1.431 2.301-7.013-11.736c-0.013-0.033-0.029-0.066-0.048-0.097zM15.999 30.887c-5.024 0-8.525-1.766-8.525-3.351 0-1.438 2.637-2.793 6.183-3.213l1.742 2.916c0.096 0.161 0.269 0.26 0.456 0.261 0.001 0 0.003 0 0.005 0 0.185 0 0.358-0.096 0.456-0.253l1.832-2.945c3.603 0.39 6.376 1.78 6.376 3.234 0 1.585-3.501 3.351-8.525 3.351z"></path>
<path fill="#d4533c" d="M19.484 9.584c0-1.922-1.563-3.485-3.485-3.485s-3.485 1.563-3.485 3.485 1.563 3.485 3.485 3.485c1.922 0 3.485-1.563 3.485-3.485zM13.587 9.584c0-1.33 1.082-2.412 2.412-2.412s2.412 1.082 2.412 2.412-1.081 2.412-2.412 2.412c-1.33 0-2.412-1.082-2.412-2.412z"></path>
</svg>
