<!-- Generated by IcoMoon.io -->
<svg version="1.1" xmlns="http://www.w3.org/2000/svg" width="32" height="32" viewBox="0 0 32 32">
<title>menuIcon</title>
<path d="M24.299 12.344h-16.598c-0.159 0-0.288-0.129-0.288-0.288s0.129-0.288 0.288-0.288h16.598c0.159 0 0.288 0.129 0.288 0.288s-0.129 0.288-0.288 0.288v0z"></path>
<path d="M24.299 16.288h-16.598c-0.159 0-0.288-0.129-0.288-0.288s0.129-0.288 0.288-0.288h16.598c0.159 0 0.288 0.129 0.288 0.288s-0.129 0.288-0.288 0.288v0z"></path>
<path d="M24.299 20.232h-16.598c-0.159 0-0.288-0.129-0.288-0.288s0.129-0.288 0.288-0.288h16.598c0.159 0 0.288 0.129 0.288 0.288s-0.129 0.288-0.288 0.288v0z"></path>
</svg>
