<!-- Generated by IcoMoon.io -->
<svg version="1.1" xmlns="http://www.w3.org/2000/svg" width="32" height="32" viewBox="0 0 32 32">
<title>phoneCall</title>
<path fill="#d4533c" d="M31.115 22.393c-0.832-1.37-3.026-1.974-4.26-2.213-2.252-0.435-5.155-0.402-6.562 0.653-0.463 0.348-0.694 1.066-0.748 2.329-0.007 0.166-0.010 0.329-0.011 0.483-2.391-0.923-4.597-2.301-6.481-4.045l-0.827-0.822c-1.752-1.87-3.136-4.061-4.064-6.435 0.155-0.001 0.319-0.004 0.487-0.011 1.268-0.053 1.989-0.283 2.337-0.742 1.057-1.393 1.095-4.269 0.664-6.501-0.239-1.238-0.847-3.439-2.233-4.27-1.379-0.828-3.51-0.628-4.362-0.503-1.758 0.256-3.221 0.878-3.913 1.662-0.603 0.683-0.815 2.634-0.878 3.44-0.002 0.021-0.002 0.043-0.002 0.064 0.104 6.571 2.631 12.845 7.117 17.665 0.006 0.006 0.012 0.015 0.018 0.022l1.257 1.256c0.006 0.006 0.012 0.023 0.019 0.029 4.846 4.459 11.153 6.927 17.758 7.096 0.003 0 0.007 0 0.011 0 0.017 0 0.035-0.022 0.052-0.023 0.81-0.063 2.769-0.294 3.455-0.893 0.789-0.689 1.414-2.144 1.672-3.895 0.125-0.849 0.326-2.971-0.508-4.344zM30.279 26.539c-0.203 1.375-0.694 2.609-1.221 3.069-0.236 0.195-1.463 0.445-2.636 0.539-6.256-0.105-12.227-2.487-16.819-6.707l-1.239-1.232c-4.244-4.565-6.638-10.5-6.744-16.718 0.094-1.164 0.345-2.381 0.54-2.616 0.464-0.526 1.706-1.014 3.091-1.216 1.453-0.212 2.782-0.088 3.468 0.324 0.662 0.397 1.274 1.686 1.598 3.364 0.425 2.202 0.253 4.515-0.398 5.404-0.263 0.185-1.456 0.284-2.575 0.217-0.122-0.031-0.253-0.029-0.38 0.014-0.112 0.037-0.207 0.101-0.282 0.181-0.108 0.111-0.179 0.258-0.191 0.425-0.010 0.143 0.025 0.279 0.093 0.394 0.938 2.743 2.439 5.283 4.392 7.443 0.023 0.037 0.050 0.072 0.081 0.105 0.201 0.214 0.407 0.425 0.616 0.631 0.207 0.209 0.419 0.413 0.635 0.614 0.033 0.031 0.069 0.058 0.106 0.080 2.171 1.941 4.725 3.433 7.482 4.366 0.115 0.068 0.251 0.103 0.394 0.092 0.167-0.012 0.316-0.084 0.427-0.194 0.011-0.011 0.022-0.022 0.032-0.034 0.003-0.003 0.006-0.007 0.009-0.010 0.060-0.067 0.109-0.146 0.139-0.237 0.042-0.128 0.044-0.258 0.013-0.38-0.067-1.11 0.032-2.292 0.217-2.553 0.901-0.653 3.243-0.822 5.471-0.392 1.674 0.323 2.96 0.931 3.357 1.585 0.413 0.681 0.538 1.999 0.325 3.442z"></path>
</svg>
