<!-- Generated by IcoMoon.io -->
<svg version="1.1" xmlns="http://www.w3.org/2000/svg" width="32" height="32" viewBox="0 0 32 32">
<title>videoCamera</title>
<path fill="#d4533c" d="M7 20c0.791 0 1.564-0.235 2.222-0.674s1.171-1.064 1.473-1.795c0.303-0.731 0.382-1.535 0.228-2.311s-0.535-1.489-1.095-2.048c-0.559-0.559-1.272-0.94-2.048-1.095s-1.58-0.075-2.311 0.228-1.356 0.815-1.795 1.473c-0.44 0.658-0.674 1.431-0.674 2.222 0 1.061 0.421 2.078 1.172 2.828s1.768 1.172 2.828 1.172zM7 13c0.593 0 1.173 0.176 1.667 0.506s0.878 0.798 1.105 1.346c0.227 0.548 0.287 1.151 0.171 1.733s-0.401 1.116-0.821 1.536c-0.42 0.42-0.954 0.705-1.536 0.821s-1.185 0.056-1.733-0.171c-0.548-0.227-1.017-0.612-1.346-1.105s-0.506-1.073-0.506-1.667c0-0.796 0.316-1.559 0.879-2.121s1.326-0.879 2.121-0.879v0z"></path>
<path fill="#d4533c" d="M3 26c0.552 0 1-0.448 1-1s-0.448-1-1-1-1 0.448-1 1c0 0.552 0.448 1 1 1z"></path>
<path fill="#d4533c" d="M30 15h-13c-0.53 0-1.039 0.211-1.414 0.586s-0.586 0.884-0.586 1.414v1h-1v-2c0-1.857-0.737-3.637-2.050-4.95s-3.093-2.050-4.95-2.050-3.637 0.738-4.95 2.050c-1.313 1.313-2.050 3.093-2.050 4.95v10c0 0.53 0.211 1.039 0.586 1.414s0.884 0.586 1.414 0.586h10c0.53 0 1.039-0.211 1.414-0.586s0.586-0.884 0.586-1.414v-1h1v1c0 0.53 0.211 1.039 0.586 1.414s0.884 0.586 1.414 0.586h13c0.53 0 1.039-0.211 1.414-0.586s0.586-0.884 0.586-1.414v-9c0-0.53-0.211-1.039-0.586-1.414s-0.884-0.586-1.414-0.586zM7 10c1.187 0 2.347 0.352 3.333 1.011s1.756 1.596 2.21 2.693c0.454 1.096 0.573 2.303 0.341 3.467s-0.803 2.233-1.642 3.072-1.908 1.411-3.072 1.642c-1.164 0.232-2.37 0.113-3.467-0.341s-2.033-1.223-2.693-2.21-1.011-2.147-1.011-3.333c0-1.591 0.632-3.117 1.757-4.243s2.651-1.757 4.243-1.757v0zM13 26c0 0.265-0.105 0.52-0.293 0.707s-0.442 0.293-0.707 0.293h-10c-0.265 0-0.52-0.105-0.707-0.293s-0.293-0.442-0.293-0.707v-6.41c0.622 1.035 1.502 1.892 2.553 2.487s2.239 0.907 3.447 0.907c1.208 0 2.395-0.313 3.447-0.907s1.931-1.452 2.553-2.487v6.41zM14 24v-5h1v5h-1zM31 26c0 0.265-0.105 0.52-0.293 0.707s-0.442 0.293-0.707 0.293h-13c-0.265 0-0.52-0.105-0.707-0.293s-0.293-0.442-0.293-0.707v-9c0-0.265 0.105-0.52 0.293-0.707s0.442-0.293 0.707-0.293h13c0.265 0 0.52 0.105 0.707 0.293s0.293 0.442 0.293 0.707v9z"></path>
</svg>
