<!-- Generated by IcoMoon.io -->
<svg version="1.1" xmlns="http://www.w3.org/2000/svg" width="32" height="32" viewBox="0 0 32 32">
<title>whatApp</title>
<path fill="#d4533c" d="M1 31.5c-0.15 0-0.25-0.050-0.35-0.15-0.15-0.15-0.2-0.35-0.1-0.5l2.25-6.8c-1.5-2.4-2.3-5.2-2.3-8.050 0-8.55 6.95-15.5 15.5-15.5s15.5 6.95 15.5 15.5c0 8.55-6.95 15.5-15.5 15.5-2.85 0-5.65-0.8-8.050-2.25l-6.8 2.2c-0.050 0.050-0.1 0.050-0.15 0.050zM8 28.2c0.1 0 0.2 0.050 0.25 0.1 2.3 1.45 5 2.25 7.75 2.25 8 0 14.5-6.5 14.5-14.5s-6.5-14.55-14.5-14.55c-8 0-14.5 6.5-14.5 14.5 0 2.75 0.8 5.45 2.25 7.75 0.1 0.15 0.1 0.3 0.050 0.4 0 0.050-0.050 0.1-0.1 0.15l-1.9 5.9 6.050-2c0.050 0 0.1 0 0.15 0z"></path>
<path fill="#d4533c" d="M20 23.65c-1.35 0-3.050-0.45-5-1.35-2.7-1.25-4.9-3.2-6.35-5.65-0.85-1.4-1.3-2.7-1.35-3.9 0-0.050-0.25-2.35 1.95-4.1 0.25-0.2 0.55-0.3 0.9-0.3h0.9c0.55 0 1.1 0.35 1.3 0.85l1.35 3.3c0.2 0.5 0.1 1.1-0.25 1.5l-0.85 0.95c-0.1 0.15-0.15 0.35-0.050 0.5 0.050 0.050 0.1 0.2 0.3 0.45 1 1.3 2.35 2.35 3.85 3 0.25 0.1 0.4 0.15 0.5 0.2 0.15 0.050 0.35 0 0.45-0.15l0.7-1.050c0.3-0.45 0.85-0.7 1.4-0.6l3.55 0.55c0.55 0.1 1 0.5 1.15 1.050l0.2 0.9c0.1 0.3 0.050 0.65-0.1 0.95-1.2 2.6-3.45 2.9-3.55 2.9-0.3-0.050-0.65 0-1 0zM10.15 9.35c-0.1 0-0.2 0.050-0.25 0.1-1.8 1.45-1.6 3.25-1.6 3.25 0.050 1.050 0.45 2.2 1.2 3.45 1.35 2.25 3.4 4.1 5.9 5.25 2.25 1.050 4.1 1.45 5.45 1.2 0.1 0 1.85-0.3 2.8-2.35 0.050-0.1 0.050-0.2 0-0.25l-0.15-0.9c-0.050-0.15-0.15-0.3-0.35-0.3l-3.55-0.55c-0.15 0-0.3 0.050-0.4 0.2l-0.7 1.050c-0.35 0.5-0.95 0.75-1.55 0.6-0.15-0.050-0.35-0.1-0.65-0.25-1.65-0.75-3.15-1.9-4.25-3.35-0.2-0.25-0.3-0.4-0.4-0.55-0.3-0.55-0.2-1.2 0.2-1.65l0.85-0.95c0.1-0.1 0.15-0.3 0.1-0.45l-1.35-3.3c-0.050-0.15-0.2-0.25-0.4-0.25h-0.9z"></path>
</svg>
